
        <svg xmlns="http://www.w3.org/2000/svg" xmlns:xlink="http://www.w3.org/1999/xlink" version="1.1" width="3171.4285714285716" height="638.3795659055564" viewBox="0 0 3171.4285714285716 638.3795659055564">
			
			<g transform="scale(8.571428571428571) translate(10, 10)">
				<defs id="SvgjsDefs1331"/><g id="SvgjsG1332" featureKey="K5GtsI-0" transform="matrix(3.731343465679476,0,0,3.731343465679476,-4.402985538595832,-21.343283840819588)" fill="#fff"><path d="M10.18 14.68 l0 -8.7 l2.64 0 l0 14.02 l-1.64 0 l0 0.02 l-7.36 -9.46 l0 9.44 l-2.64 0 l0 -14 l2.14 0 z M22.02 5.720000000000001 c4.82 0 7.22 3.7 7.18 7.36 c-0.04 3.62 -2.26 7.24 -7.18 7.24 s-7.2 -3.54 -7.2 -7.22 s2.36 -7.38 7.2 -7.38 z M22.02 8.12 c-3.3 0 -4.66 2.66 -4.6 5.02 c0.06 2.3 1.3 4.76 4.6 4.76 s4.54 -2.48 4.58 -4.78 c0.04 -2.36 -1.28 -5 -4.58 -5 z M43.92 6 l-5.82 14.06 l-2.74 0 l-5.82 -14.06 l2.96 0 l4.22 10.9 l4.24 -10.9 l2.96 0 z M56.660000000000004 20 l-1.18 -2.64 l-7.32 0 l-1.2 2.64 l-2.86 0 l6.28 -14 l2.88 0 l6.28 14 l-2.88 0 z M54.42 14.9 l-2.6 -5.96 l-2.6 5.96 l5.2 0 z M62.06000000000001 20 l0 -11.6 l-4.44 0 l0 -2.4 l11.52 0 l0 2.4 l-4.44 0 l0 11.6 l-2.64 0 z M81.18 17.4 l0 2.6 l-10.48 0 l0 -14 l10.48 0 l0 2.56 l-7.86 0 l0 3.22 l7.58 0 l0 2.46 l-7.58 0 l0 3.16 l7.86 0 z M94.46000000000001 6 l0 0.08 l-6.22 6.7 l6.74 7.06 l0 0.16 l-3.26 0 l-5.86 -6.2 l0 6.2 l-2.64 0 l0 -14 l2.64 0 l0 5.92 l5.32 -5.92 l3.28 0 z"/></g>
			</g>
		</svg>
	