<?xml version="1.0" encoding="UTF-8"?>
<svg xmlns="http://www.w3.org/2000/svg" xmlns:xlink="http://www.w3.org/1999/xlink" version="1.1" x="0px" y="0px" viewBox="0 0 100 100" style="enable-background:new 0 0 100 100;" xml:space="preserve" width="512" height="512">
































<g id="Layer_35">
	
	
	<g>
		<path d="M90.1,40.8c-0.3-0.3-0.8-0.4-1.2-0.4H73.1c0-11.2,0-22.4,0-33.7c0-1-0.8-1.8-1.8-1.8H28.6c-1,0-1.8,0.8-1.8,1.8    c0,0,0,0.1,0,0.2v33.5h-16c-1,0-1.8,0.8-1.8,1.8c0,0.4,0.2,0.8,0.4,1.2l39,51c0.6,0.8,1.7,0.9,2.5,0.3c0.1-0.1,0.2-0.2,0.3-0.4    l39.1-51.1C91.1,42.5,90.9,41.4,90.1,40.8z M30.4,8.5h39.2V16H30.4V8.5z M34.7,53.3h-5c-1,0-1.8-0.8-1.8-1.8c0-1,0.8-1.8,1.8-1.8    h5c1,0,1.8,0.8,1.8,1.8C36.5,52.5,35.7,53.3,34.7,53.3z M59,56.5c0,2.1-0.9,4.1-2.3,5.5c-1.1,1.1-2.5,1.9-4.2,2.1v4.1    c0,1-0.8,1.8-1.8,1.8c-1,0-1.7-0.8-1.7-1.8v-4l-4.9,0c-1,0-1.8-0.8-1.8-1.7s0.8-1.8,1.8-1.8l7.1,0v0v0c1.2,0,2.2-0.5,3-1.2    c0.8-0.8,1.2-1.8,1.2-3h0h0c0-1.2-0.5-2.2-1.2-3c-0.8-0.8-1.8-1.2-2.9-1.2h-1.2v0v0c-2.1,0-4.1-0.9-5.5-2.3    c-1.4-1.4-2.3-3.3-2.3-5.5h0h0c0-2.1,0.9-4.1,2.3-5.5c1.2-1.2,2.7-2,4.4-2.2l0-4.1c0-1,0.8-1.7,1.7-1.7c1,0,1.8,0.8,1.8,1.7l0,4    l4.4,0c1,0,1.8,0.8,1.8,1.7c0,1-0.8,1.7-1.8,1.7h-6.9c-1.2,0-2.2,0.5-3,1.2c-0.8,0.8-1.2,1.8-1.2,3h0h0c0,1.2,0.5,2.2,1.2,3    c0.8,0.8,1.8,1.2,3,1.2v0v0h1.2c2.1,0,4,0.9,5.4,2.3C58.1,52.4,59,54.3,59,56.5L59,56.5L59,56.5z M70.3,53.3h-5    c-1,0-1.8-0.8-1.8-1.8c0-1,0.8-1.8,1.8-1.8h5c1,0,1.8,0.8,1.8,1.8C72,52.5,71.3,53.3,70.3,53.3z"/>
	</g>
</g>
</svg>
