<?xml version="1.0" encoding="iso-8859-1"?>
<!-- Generator: Adobe Illustrator 19.0.0, SVG Export Plug-In . SVG Version: 6.00 Build 0)  -->
<svg version="1.1" id="Layer_1" xmlns="http://www.w3.org/2000/svg" xmlns:xlink="http://www.w3.org/1999/xlink" x="0px" y="0px"
	 viewBox="0 0 512 512" style="enable-background:new 0 0 512 512;" xml:space="preserve">
<g>
	<g>
		<path d="M505.003,95.182L512,90.768V0h-15C206,0,0,235,0,497v15h512v-24.768l-6.997-4.414C438.001,440.549,398,368.094,398,289
			S438.001,137.451,505.003,95.182z M205.495,455.072c-4.611-20.293-7.375-41.194-8.216-62.122l29.977-1.203
			c0.767,19.1,3.288,38.169,7.493,56.678L205.495,455.072z M230.13,334.626l-29.701-4.228c2.945-20.691,7.824-41.202,14.503-60.961
			l28.421,9.604C237.264,297.058,232.815,315.759,230.13,334.626z M266.559,226.827l-26.178-14.654
			c10.184-18.191,22.119-35.563,35.474-51.632l23.072,19.175C286.739,194.379,275.85,210.229,266.559,226.827z M339.323,139.253
			l-19.212-23.041c16.05-13.382,33.404-25.347,51.581-35.561l14.697,26.153C369.806,116.124,353.971,127.041,339.323,139.253z
			 M428.921,55.106c19.748-6.71,40.252-11.622,60.942-14.601l4.273,29.694c-18.866,2.715-37.561,7.194-55.565,13.312L428.921,55.106
			z"/>
	</g>
</g>
<g>
</g>
<g>
</g>
<g>
</g>
<g>
</g>
<g>
</g>
<g>
</g>
<g>
</g>
<g>
</g>
<g>
</g>
<g>
</g>
<g>
</g>
<g>
</g>
<g>
</g>
<g>
</g>
<g>
</g>
</svg>
