<svg id="Capa_1" enable-background="new 0 0 512 512" height="512" viewBox="0 0 512 512" width="512" xmlns="http://www.w3.org/2000/svg"><g><path d="m316.528 303.8-25.59-143.52-91.729-120.768-73.865 21.983-44.013 105.344-81.331 81.331v109.69l116.846 74.498h107.622l95.602 40.224 79.618-8.846zm-220.798 32.881h-30v-30h30zm80.004-49.154h-30v-30h30zm42.49-107.736h-30v-30h30zm60.212 195.054h-30v-30h30z"/><path d="m442.954 196.4-75.419-130.656-130.724-26.326 82.392 108.476 26.056 146.131 81.661 157.053 85.08-82.313v-144.747zm-28.216 72.361h-30v-30h30zm47.801 83.854h-30v-30h30z"/></g></svg>